<svg width="16" height="16" viewBox="0 0 16 16" fill="none" xmlns="http://www.w3.org/2000/svg">
<path d="M11.742 10.3421C12.7103 9.02083 13.144 7.38264 12.9563 5.7553C12.7686 4.12796 11.9734 2.63149 10.7298 1.56528C9.48612 0.499068 7.88575 -0.0582491 6.24884 0.00482408C4.61192 0.0678972 3.05919 0.746709 1.90127 1.90545C0.743353 3.0642 0.0656519 4.61742 0.00375008 6.25438C-0.0581517 7.89134 0.500311 9.49131 1.56741 10.7342C2.63451 11.9771 4.13155 12.7712 5.75902 12.9577C7.38649 13.1442 9.02438 12.7094 10.345 11.7401H10.344C10.374 11.7801 10.406 11.8181 10.442 11.8551L14.292 15.7051C14.4795 15.8928 14.7339 15.9983 14.9991 15.9983C15.2644 15.9984 15.5189 15.8932 15.7065 15.7056C15.8941 15.5181 15.9996 15.2638 15.9997 14.9985C15.9998 14.7332 15.8945 14.4788 15.707 14.2911L11.857 10.4411C11.8212 10.405 11.7828 10.3715 11.742 10.3411V10.3421ZM12 6.49815C12 7.22042 11.8577 7.93562 11.5813 8.60291C11.3049 9.2702 10.8998 9.87651 10.3891 10.3872C9.87837 10.898 9.27205 11.3031 8.60476 11.5795C7.93747 11.8559 7.22227 11.9981 6.5 11.9981C5.77773 11.9981 5.06253 11.8559 4.39524 11.5795C3.72795 11.3031 3.12164 10.898 2.61091 10.3872C2.10019 9.87651 1.69506 9.2702 1.41866 8.60291C1.14226 7.93562 1 7.22042 1 6.49815C1 5.03946 1.57946 3.64051 2.61091 2.60906C3.64236 1.57761 5.04131 0.998147 6.5 0.998147C7.95869 0.998147 9.35764 1.57761 10.3891 2.60906C11.4205 3.64051 12 5.03946 12 6.49815Z" fill="white"/>
</svg>
